<?xml version="1.0" encoding="UTF-8" standalone="no"?>
<!-- Creator: CorelDRAW -->

<svg
   xmlns:dc="http://purl.org/dc/elements/1.1/"
   xmlns:cc="http://creativecommons.org/ns#"
   xmlns:rdf="http://www.w3.org/1999/02/22-rdf-syntax-ns#"
   xmlns:svg="http://www.w3.org/2000/svg"
   xmlns="http://www.w3.org/2000/svg"
   xmlns:sodipodi="http://sodipodi.sourceforge.net/DTD/sodipodi-0.dtd"
   xmlns:inkscape="http://www.inkscape.org/namespaces/inkscape"
   xml:space="preserve"
   width="106"
   height="129"
   style="shape-rendering:geometricPrecision; text-rendering:geometricPrecision; image-rendering:optimizeQuality; fill-rule:evenodd; clip-rule:evenodd"
   viewBox="0 0 50 50"
   id="svg1410"
   sodipodi:version="0.32"
   inkscape:version="0.92.3 (2405546, 2018-03-11)"
   sodipodi:docname="WikiSpecies_black.svg"
   version="1.0"><metadata
   id="metadata1433"><rdf:RDF><cc:Work
       rdf:about=""><dc:format>image/svg+xml</dc:format><dc:type
         rdf:resource="http://purl.org/dc/dcmitype/StillImage" /></cc:Work></rdf:RDF></metadata><sodipodi:namedview
   inkscape:window-height="1027"
   inkscape:window-width="1920"
   inkscape:pageshadow="2"
   inkscape:pageopacity="0.0"
   borderopacity="1.0"
   bordercolor="#666666"
   pagecolor="#ffffff"
   id="base"
   inkscape:zoom="8"
   inkscape:cx="50.108291"
   inkscape:cy="40.804142"
   inkscape:window-x="-8"
   inkscape:window-y="-8"
   inkscape:current-layer="svg1410"
   showgrid="false"
   inkscape:window-maximized="1" />
 <defs
   id="defs1412">
  <style
   type="text/css"
   id="style1414">
   
    .str1 {stroke:#007CC3;stroke-width:0.0762}
    .str2 {stroke:#44916C;stroke-width:0.0762}
    .str3 {stroke:#903E2B;stroke-width:0.0762}
    .str0 {stroke:white;stroke-width:0.0762}
    .fil1 {fill:#006AA5}
    .fil2 {fill:#44916C}
    .fil3 {fill:#922D2A}
    .fil0 {fill:white}
   
  </style>
 
  <metadata
   id="CorelCorpID_0Corel-Layer" />
  
  
  
  
  
  
  
 </defs>
 <g
   id="g1443"
   transform="matrix(1.67137,0,0,1.671364,-18.74092,-14.1554)"
   style="stroke:#000000;fill:#000000;fill-opacity:1;stroke-opacity:1;stroke-width:0.02822229;stroke-miterlimit:4;stroke-dasharray:none"><path
     class="fil1 str1"
     d="M 14.8337,16.995614 C 9.4811,23.246614 10.2095,32.656914 16.4605,38.009614 C 22.7117,43.362514 32.122,42.634014 37.4748,36.383014 C 42.3837,30.650114 42.2316,22.150014 37.1214,16.598014 L 33.9885,19.480614 C 37.7871,23.607614 38.2182,30.250814 34.5693,34.512114 C 30.5904,39.158814 23.5953,39.700214 18.9486,35.721314 C 14.3019,31.742414 14.0657,24.391514 18.0445,19.744914 L 14.8337,16.995614 L 14.8337,16.995614 z "
     id="path1420"
     style="fill:#000000;stroke:#000000;stroke-width:0.02822229;fill-opacity:1;stroke-opacity:1;stroke-miterlimit:4;stroke-dasharray:none" /><path
     class="fil2 str2"
     d="M 30.2408,28.853614 C 30.2163,27.647214 21.4734,26.075314 20.2986,25.140314 C 19.7112,24.672814 19.3942,24.048514 19.3825,23.411614 L 22.8141,23.343514 C 22.6696,24.287414 31.2727,25.283414 32.2869,26.631914 C 32.8097,27.327014 33.0078,28.006914 32.9347,28.676014 L 31.0342,28.790714 C 30.9205,28.677014 30.4087,28.790714 30.2408,28.853614 L 30.2408,28.853614 z "
     id="path1422"
     style="fill:#000000;stroke:#000000;stroke-width:0.02822229;fill-opacity:1;stroke-opacity:1;stroke-miterlimit:4;stroke-dasharray:none" /><path
     class="fil1 str1"
     d="M 19.6724,16.395914 L 19.6724,19.466114 C 19.7425,21.250214 29.3503,22.399514 29.4948,23.343514 C 29.6393,24.287414 21.0362,25.283414 20.022,26.631914 C 18.9763,28.022214 19.2291,29.351514 20.3547,30.655414 C 21.6373,32.141114 32.0088,34.065014 32.0103,35.921014 L 32.0103,32.709114 C 32.0103,31.469214 22.0436,30.060014 22.0681,28.853614 C 22.0926,27.647214 30.8355,26.075314 32.0103,25.140314 C 33.1851,24.205214 33.2784,22.643714 32.0103,21.606614 C 30.2795,20.191114 19.2529,17.583814 19.6724,16.395914 L 19.6724,16.395914 z "
     id="path1424"
     style="fill:#000000;stroke:#000000;stroke-width:0.02822229;fill-opacity:1;stroke-opacity:1;stroke-miterlimit:4;stroke-dasharray:none" /><path
     class="fil3 str3"
     d="M 26.0334,15.869014 C 23.1561,15.869014 20.8227,13.535614 20.8227,10.658314 C 20.8227,7.780914 23.1561,5.447614 26.0334,5.447614 C 28.9108,5.447614 31.2441,7.780914 31.2441,10.658314 C 31.2441,13.535614 28.9108,15.869014 26.0334,15.869014 z "
     id="path1426"
     style="fill:#000000;stroke:#000000;stroke-width:0.02822229;fill-opacity:1;stroke-opacity:1;stroke-miterlimit:4;stroke-dasharray:none" /><path
     class="fil2 str2"
     d="M 19.3825,23.411614 C 19.371,22.774814 19.6646,22.125014 20.2986,21.606614 C 22.0293,20.191114 33.056,17.583814 32.6365,16.395914 L 32.6365,19.466114 C 32.5664,21.250214 22.9586,22.399514 22.8141,23.343514 L 19.3825,23.411614 L 19.3825,23.411614 z "
     id="path1428"
     style="fill:#000000;stroke:#000000;stroke-width:0.02822229;fill-opacity:1;stroke-opacity:1;stroke-miterlimit:4;stroke-dasharray:none" /><path
     class="fil2 str2"
     d="M 32.9347,28.676014 C 32.8615,29.345114 32.5169,30.003514 31.9542,30.655414 C 30.6717,32.141114 20.3,34.065014 20.2986,35.921014 L 20.2986,32.709114 C 20.2986,31.469214 30.2653,30.060014 30.2408,28.853614 C 30.4087,28.790714 30.9205,28.677014 31.0342,28.790714 L 32.9347,28.676014 L 32.9347,28.676014 z "
     id="path1430"
     style="fill:#000000;stroke:#000000;stroke-width:0.02822229;fill-opacity:1;stroke-opacity:1;stroke-miterlimit:4;stroke-dasharray:none" /></g>
</svg>