<?xml version="1.0" encoding="UTF-8"?>
<!DOCTYPE svg PUBLIC "-//W3C//DTD SVG 1.1//EN" "http://www.w3.org/Graphics/SVG/1.1/DTD/svg11.dtd">
<svg version="1.1" xmlns="http://www.w3.org/2000/svg" xmlns:xlink="http://www.w3.org/1999/xlink" x="0" y="0" width="389" height="280" viewBox="0, 0, 389, 280">
  <g id="Layer_1">
    <path d="M85.401,42.971 C86.266,43.138 88.732,43.262 92.369,43.262 C105.304,43.262 116.652,36.148 116.652,24.964 C116.652,14.931 109.366,7.527 93.971,7.527 C89.335,7.527 86.713,7.814 85.55,7.956 L85.401,42.971 z M85.259,83.664 C85.117,88.02 88.024,89.044 97.6,89.044 C109.231,89.044 121.862,83.664 121.862,69.424 C121.862,60.567 115.036,49.793 94.134,49.793 C89.179,49.793 86.401,49.793 85.401,50.094 L85.259,83.664 z M73.337,88.607 C73.763,88.607 74.06,88.445 74.06,87.878 L74.06,8.25 L63.173,7.814 C63.173,5.485 63.315,3.306 63.315,1.282 C69.701,1.13 81.482,0.981 88.732,0.981 C101.236,0.981 109.664,1.708 116.652,4.759 C123.182,7.956 127.964,14.931 127.964,22.483 C127.964,33.235 120.267,41.082 110.684,44.428 L110.684,45.314 C123.762,46.902 133.926,56.62 133.926,68.269 C133.926,84.532 119.7,95.725 97.762,95.725 C94.134,95.725 82.8,95.593 80.029,95.593 C75.371,95.593 68.532,95.593 63.024,95.593 C63.024,93.399 63.024,91.063 63.173,88.898 L73.337,88.607" fill="#1A1919"/>
    <path d="M161.591,88.317 C162.017,88.317 162.165,88.02 162.165,87.718 L162.165,8.25 L151.852,7.814 C151.852,5.78 151.852,3.306 152.009,1.13 C156.928,1.13 163.179,1.282 168.558,1.282 C174.379,1.282 180.928,1.13 186.279,1.13 C186.279,3.306 186.279,5.78 186.137,7.956 L174.229,8.25 C173.953,8.25 173.79,8.533 173.79,8.831 L173.79,42.262 C173.79,42.535 173.79,42.836 174.379,42.836 L221.151,42.836 L221.151,8.25 L208.806,7.956 C208.806,5.78 208.806,3.306 208.94,1.282 C214.327,1.282 220.862,1.282 227.113,1.282 C232.515,1.282 238.156,1.13 242.68,1.13 C242.814,3.306 242.68,5.78 242.509,7.814 L233.21,8.25 C232.926,8.25 232.926,8.533 232.926,8.831 L232.515,88.317 L243.254,88.742 C243.254,90.922 243.254,93.24 243.091,95.593 C238.312,95.593 232.06,95.441 226.525,95.441 C220.72,95.441 214.184,95.593 208.94,95.593 C208.94,93.399 209.11,90.922 209.11,88.742 L220.594,88.317 C221.017,88.317 221.151,88.172 221.151,87.718 L221.151,50.531 C221.151,50.237 221.017,49.957 220.594,49.957 L173.655,50.237 L173.499,88.317 L186.428,88.742 C186.428,90.922 186.428,93.399 186.279,95.593 C181.063,95.593 174.229,95.441 168.283,95.441 C162.895,95.441 156.928,95.593 152.009,95.593 C152.009,93.399 152.009,91.063 152.15,88.742 L161.591,88.317" fill="#1A1919"/>
    <path d="M264.178,7.956 C264.029,5.78 264.178,3.459 264.318,1.282 C269.4,1.282 275.518,1.282 281.317,1.282 C287.419,1.282 293.826,1.282 299.781,1.282 C299.781,3.459 299.632,5.925 299.49,8.104 L286.839,8.399 C286.548,8.399 286.548,8.533 286.548,8.987 L286.122,85.698 C286.122,88.317 286.257,88.742 292.374,88.742 C308.505,88.742 313.149,88.317 315.475,87.878 C316.777,87.594 317.501,86.567 318.089,84.837 L323.321,69.562 C326.077,69.991 328.686,70.735 331.017,71.319 C329.551,78.429 327.232,88.02 325.355,95.725 C318.38,95.725 300.795,95.593 281.182,95.593 C275.064,95.593 269.266,95.725 264.029,95.725 C264.029,93.534 264.178,91.063 264.318,88.898 L274.208,88.445 C274.633,88.445 274.796,88.317 274.796,87.878 L274.796,8.399 L264.178,7.956" fill="#1A1919"/>
    <path d="M322.673,143.826 C322.588,147.017 322.675,150.224 322.376,153.395 C321.974,157.652 321.317,161.888 320.693,166.122 C319.759,172.463 318.053,178.616 316.033,184.688 C313.815,191.352 310.971,197.744 307.786,203.995 C307.319,204.911 306.538,204.647 305.885,204.731 C301.778,205.262 297.657,205.688 293.552,206.232 C291.08,206.559 288.603,206.932 286.171,207.472 C281.445,208.521 276.693,209.513 272.056,210.88 C266.825,212.423 261.614,214.123 256.568,216.181 C251.381,218.296 246.291,220.718 241.369,223.391 C236.943,225.794 232.75,228.641 228.554,231.441 C225.64,233.386 222.86,235.538 220.089,237.687 C218.549,238.881 217.094,240.199 215.701,241.564 C212.352,244.842 208.926,248.057 205.781,251.525 C201.684,256.043 197.962,260.88 194.877,266.172 C194.62,266.614 194.297,267.018 193.896,267.598 C192.748,265.829 191.746,264.15 190.612,262.565 C188.924,260.203 187.228,257.838 185.381,255.601 C183.052,252.781 180.611,250.049 178.139,247.352 C174.174,243.027 169.72,239.215 165.114,235.611 C162.044,233.21 158.779,231.034 155.468,228.973 C151.511,226.511 147.502,224.099 143.349,221.996 C138.916,219.752 134.332,217.788 129.733,215.899 C126.029,214.378 122.242,213.036 118.423,211.83 C114.906,210.719 111.311,209.842 107.727,208.959 C104.352,208.128 100.962,207.343 97.55,206.686 C94.514,206.101 91.446,205.67 88.379,205.264 C86.196,204.974 83.99,204.858 81.801,204.609 C81.564,204.582 81.291,204.217 81.168,203.948 C78.859,198.894 76.276,193.94 74.359,188.741 C72.308,183.179 70.742,177.422 69.248,171.676 C68.339,168.18 67.816,164.563 67.391,160.969 C66.894,156.778 66.684,152.553 66.368,148.342 C66.256,146.839 66.197,145.331 66.113,143.826 C68.909,143.826 79.727,144.249 81.924,144.608 C86.808,145.407 91.695,146.236 96.522,147.32 C105.38,149.31 113.849,152.46 122.026,156.396 C128.872,159.691 135.438,163.479 141.486,168.073 C145.772,171.328 149.989,174.709 153.951,178.345 C159.09,183.061 163.793,188.211 168.037,193.783 C172.249,199.313 176.095,205.07 179.313,211.219 C181.368,215.145 183.323,219.148 184.956,223.262 C186.833,227.993 188.479,232.836 189.9,237.724 C191.132,241.96 192.018,246.306 192.85,250.644 C193.39,253.457 193.566,256.34 193.892,259.194 C194.083,260.869 194.25,262.547 194.444,264.387 C194.77,261.312 194.974,258.405 195.408,255.532 C196.068,251.152 196.676,246.747 197.683,242.441 C199.895,232.978 203.151,223.856 207.484,215.147 C210.413,209.261 213.766,203.618 217.562,198.239 C221.523,192.627 225.916,187.375 230.683,182.438 C232.359,180.703 234.127,179.051 235.924,177.441 C238.344,175.273 240.737,173.057 243.312,171.085 C248.847,166.843 254.612,162.939 260.757,159.6 C266.752,156.343 272.917,153.495 279.344,151.198 C303.035,143.826 319.96,143.826 322.673,143.826" fill="#1A1919"/>
    <path d="M-0,279.507 C1.731,277.819 3.467,276.136 5.193,274.443 C9.952,269.777 15.089,265.579 20.525,261.715 C26.63,257.376 33.082,253.648 39.845,250.482 C48.125,246.607 56.728,243.586 65.649,241.531 C69.094,240.737 72.548,239.955 76.03,239.349 C78.458,238.927 80.936,238.764 83.398,238.573 C87.148,238.282 90.902,238.017 94.658,237.835 C97.862,237.679 101.075,237.524 104.278,237.609 C108.107,237.711 111.935,238.01 115.754,238.338 C117.998,238.53 120.234,238.879 122.454,239.269 C127.24,240.111 132.037,240.914 136.783,241.949 C139.896,242.628 142.95,243.615 145.988,244.595 C148.887,245.531 151.766,246.551 154.59,247.691 C157.584,248.899 160.522,250.254 163.451,251.618 C165.634,252.635 167.844,253.636 169.9,254.879 C173.975,257.343 178.029,259.856 181.944,262.564 C185.027,264.696 187.9,267.135 190.839,269.471 C191.798,270.234 192.698,271.077 193.577,271.933 C194.183,272.523 194.642,272.469 195.237,271.897 C200.152,267.169 205.594,263.134 211.316,259.427 C216.031,256.372 220.861,253.555 225.989,251.28 C230.648,249.214 235.331,247.185 240.088,245.362 C242.942,244.268 245.945,243.55 248.906,242.754 C252.392,241.816 255.886,240.885 259.413,240.125 C262.1,239.546 264.837,239.185 267.565,238.82 C271,238.359 274.444,237.962 277.891,237.599 C279.47,237.433 281.063,237.38 282.651,237.335 C285.933,237.244 289.218,237.078 292.496,237.159 C295.922,237.243 299.342,237.57 302.763,237.813 C304.829,237.959 306.895,238.112 308.954,238.325 C310.911,238.527 312.866,238.772 314.81,239.068 C317.235,239.437 319.684,239.739 322.059,240.326 C324.756,240.992 327.379,241.958 330.043,242.763 C338.431,245.297 346.499,248.618 354.22,252.748 C360.447,256.078 366.445,259.794 371.92,264.276 C375.468,267.181 378.939,270.184 382.355,273.243 C384.623,275.273 386.734,277.478 388.915,279.605 C388.859,279.735 388.804,279.865 388.748,279.994 C388.332,279.994 387.915,279.994 387.498,279.994 C378.249,279.994 368.999,279.994 359.749,279.994 C240.367,279.994 120.985,279.994 1.603,279.995 C1.069,279.995 0.534,279.998 -0,280 C-0,279.836 -0,279.671 -0,279.507" fill="#1A1919"/>
    <path d="M6.714,224.254 C13.793,220.368 20.791,216.881 28.231,214.424 C33.945,212.536 39.719,210.792 45.551,209.315 C49.482,208.32 53.548,207.814 57.576,207.254 C60.904,206.792 64.26,206.456 67.614,206.275 C71.538,206.063 75.49,206.275 79.401,205.952 C85.06,205.485 90.556,206.377 96.032,207.491 C102.036,208.712 108.088,209.825 113.967,211.514 C122.107,213.852 130.085,216.725 137.787,220.322 C144.621,223.512 151.243,227.079 157.432,231.371 C161.764,234.375 165.903,237.672 170.003,240.993 C172.44,242.967 174.784,245.103 176.903,247.412 C180.223,251.031 183.437,254.762 186.466,258.626 C188.803,261.606 190.796,264.856 192.92,268.001 C193.663,269.102 194.008,269.069 194.722,268.04 C197.335,264.272 199.915,260.474 202.7,256.835 C204.915,253.939 207.274,251.123 209.82,248.517 C212.764,245.503 215.915,242.68 219.102,239.919 C221.819,237.566 224.574,235.206 227.561,233.224 C232.857,229.712 238.178,226.174 243.791,223.223 C249.709,220.112 255.871,217.38 262.132,215.029 C267.79,212.904 273.7,211.426 279.546,209.838 C282.565,209.019 285.677,208.512 288.768,207.989 C293.032,207.266 297.304,206.57 301.596,206.047 C303.568,205.806 305.593,205.999 307.594,205.999 C310.431,205.997 313.274,205.881 316.103,206.026 C320.484,206.249 324.859,206.609 329.23,206.989 C335.588,207.541 341.86,208.696 347.971,210.483 C353.977,212.239 359.931,214.218 365.791,216.409 C369.856,217.929 373.738,219.942 377.67,221.802 C379.183,222.518 380.608,223.42 382.255,224.338 C378.031,225.496 374.064,226.6 370.088,227.671 C364.078,229.29 358.061,230.879 352.051,232.494 C342.939,234.944 333.83,237.405 324.72,239.858 C324.497,239.918 324.244,240.011 324.037,239.959 C322.614,239.605 321.214,239.135 319.777,238.858 C317.947,238.506 316.089,238.296 314.242,238.035 C311.924,237.708 309.612,237.328 307.285,237.086 C304.298,236.775 301.303,236.504 298.304,236.358 C295.87,236.239 293.426,236.331 290.986,236.33 C287.963,236.33 284.933,236.205 281.918,236.364 C278.453,236.547 274.995,236.934 271.545,237.322 C268.471,237.668 265.385,238.002 262.352,238.584 C258.467,239.329 254.59,240.181 250.779,241.235 C245.832,242.603 240.929,244.143 236.055,245.756 C233.97,246.445 232.004,247.498 229.99,248.399 C228.173,249.212 226.334,249.98 224.561,250.879 C221.457,252.451 218.313,253.971 215.338,255.765 C212.013,257.77 208.796,259.972 205.643,262.243 C202.709,264.357 199.905,266.652 197.08,268.913 C196.145,269.661 195.323,270.552 194.494,271.335 C191.714,269.055 189.044,266.741 186.241,264.602 C183.522,262.526 180.735,260.52 177.85,258.683 C174.336,256.445 170.747,254.309 167.082,252.328 C164.015,250.67 160.837,249.197 157.628,247.828 C154.343,246.426 151.026,245.029 147.607,244.024 C141.708,242.291 135.749,240.732 129.756,239.359 C126.341,238.577 122.814,238.266 119.328,237.818 C116.32,237.432 113.306,237.026 110.282,236.86 C106.469,236.651 102.644,236.629 98.823,236.618 C96.036,236.61 93.243,236.678 90.461,236.845 C87.842,237.001 85.229,237.289 82.622,237.595 C79.576,237.953 76.529,238.329 73.503,238.82 C71.217,239.191 68.966,239.779 66.689,240.216 C66.188,240.312 65.618,240.273 65.123,240.139 C54.467,237.254 43.824,234.321 33.164,231.452 C24.983,229.25 16.781,227.127 8.592,224.955 C8.027,224.805 7.491,224.548 6.714,224.254" fill="#1A1919"/>
  </g>
</svg>
