<!DOCTYPE svg PUBLIC "-//W3C//DTD SVG 20010904//EN" "http://www.w3.org/TR/2001/REC-SVG-20010904/DTD/svg10.dtd">
<svg version="1.0" xmlns="http://www.w3.org/2000/svg" width="218px" height="300px" viewBox="0 0 2180 3000" preserveAspectRatio="xMidYMid meet">
<g id="layer101" fill="#9a0202" stroke="none">
 <path d="M46 2960 c-38 -12 -46 -25 -46 -83 0 -55 9 -57 42 -7 51 76 112 79 147 7 19 -40 21 -61 21 -245 l0 -202 -25 -16 c-14 -9 -25 -20 -25 -25 0 -5 38 -9 85 -9 55 0 85 4 85 11 0 6 -9 13 -19 16 -19 5 -20 17 -23 226 -3 209 -4 224 -26 265 -15 29 -35 48 -57 58 -38 15 -114 17 -159 4z"/>
 <path d="M412 2963 l-33 -4 3 -66 c3 -76 22 -95 32 -33 5 35 12 43 41 56 98 40 174 -15 146 -107 -11 -38 -38 -63 -136 -132 -112 -79 -113 -226 -1 -281 33 -16 49 -18 115 -10 l76 9 0 54 c0 35 -5 56 -12 59 -7 2 -13 -4 -13 -13 0 -9 -13 -30 -29 -46 -34 -33 -78 -38 -116 -13 -54 35 -22 139 54 179 15 7 51 35 79 62 l52 49 0 80 c0 74 -2 83 -28 112 -15 17 -40 36 -56 41 -26 11 -106 12 -174 4z"/>
 <path d="M840 2962 c0 -4 9 -13 20 -20 19 -12 20 -23 20 -257 l0 -245 -67 0 c-55 0 -71 4 -90 22 -31 29 -38 18 -23 -37 l13 -45 208 0 209 0 0 38 c0 20 -4 43 -9 51 -10 16 -31 6 -31 -15 0 -11 -15 -14 -65 -14 l-65 0 0 249 c0 246 0 249 23 264 21 15 17 16 -60 16 -46 1 -83 -2 -83 -7z"/>
 <path d="M1306 2960 c-89 -29 -162 -116 -179 -216 -29 -167 53 -312 196 -350 102 -27 194 -9 265 52 65 55 92 110 99 198 10 132 -31 224 -127 286 -46 29 -60 33 -138 36 -48 2 -100 -1 -116 -6z m201 -56 c16 -12 41 -42 58 -68 27 -45 29 -55 29 -149 1 -88 -3 -108 -23 -149 -48 -95 -125 -134 -215 -108 -79 22 -129 94 -141 205 -14 124 30 239 105 278 47 25 148 19 187 -9z"/>
 <path d="M1730 2960 c0 -5 6 -10 14 -10 8 0 17 -7 20 -16 3 -9 6 -125 6 -259 0 -238 -1 -245 -22 -265 l-22 -20 116 0 c143 0 168 5 207 41 37 33 51 66 51 120 0 50 -20 90 -62 122 -37 30 -42 16 54 172 20 33 48 71 62 84 36 34 33 41 -19 41 -61 0 -96 -35 -161 -157 -48 -92 -49 -93 -86 -93 l-38 0 0 105 c0 94 2 106 20 117 35 22 22 28 -60 28 -47 0 -80 -4 -80 -10z m215 -294 c50 -21 68 -56 63 -119 -3 -31 -12 -64 -24 -79 -21 -29 -78 -50 -112 -42 -21 6 -22 10 -22 130 l0 124 30 0 c17 0 46 -6 65 -14z"/>
 <path d="M50 1055 l0 -1055 1060 0 1060 0 0 1055 0 1055 -1060 0 -1060 0 0 -1055z"/>
 </g>
<g id="layer102" fill="#fdfbfb" stroke="none">
 <path d="M1330 1983 c0 -4 12 -19 27 -35 14 -15 24 -30 22 -32 -2 -3 -24 -1 -48 5 -51 11 -97 4 -140 -22 -49 -29 -41 -47 19 -41 32 3 55 0 65 -8 13 -11 12 -15 -10 -32 -40 -31 -31 -40 34 -32 65 7 82 -3 51 -31 -28 -26 -25 -35 10 -28 34 6 35 5 16 -33 -21 -39 -11 -46 30 -22 39 23 92 20 145 -8 16 -8 29 -10 29 -5 0 12 -112 113 -172 154 -86 59 -51 67 38 9 75 -49 173 -154 204 -218 74 -156 9 -362 -135 -430 -59 -28 -87 -30 -146 -9 -66 24 -72 4 -15 -51 53 -51 50 -69 -11 -59 -76 13 3 -46 83 -63 l37 -7 3 -93 c4 -124 27 -204 53 -188 6 4 11 29 11 55 0 26 6 55 13 65 12 16 14 14 25 -21 7 -22 21 -48 31 -57 20 -18 20 -17 18 76 -2 76 1 99 16 122 l19 28 53 -59 c29 -32 55 -56 58 -53 3 3 -6 39 -20 80 -21 59 -26 96 -27 172 -1 54 -4 98 -7 98 -3 0 -11 -10 -16 -22 -6 -13 -36 -54 -66 -91 -34 -42 -62 -91 -73 -125 l-19 -57 -3 47 c-3 54 10 86 71 168 37 48 106 171 118 208 3 10 17 3 44 -22 90 -82 200 -71 251 26 33 63 1 168 -59 193 -37 15 -72 8 -42 -9 48 -28 72 -69 35 -59 -24 6 -25 -4 -5 -31 24 -32 19 -81 -11 -105 -32 -25 -46 -26 -91 -4 -49 23 -81 77 -99 169 -17 84 -67 190 -129 271 -40 52 -45 94 -15 120 24 21 26 38 4 29 -28 -11 -9 18 22 34 l29 15 -34 3 c-42 4 -82 -23 -96 -64 -5 -16 -10 -31 -12 -33 -1 -2 -26 17 -55 41 -80 66 -128 93 -128 71z"/>
 <path d="M623 1963 c-19 -4 -28 -23 -58 -118 -19 -62 -35 -118 -35 -124 0 -7 31 15 70 48 107 92 156 110 248 90 66 -14 122 -68 153 -147 22 -54 23 -77 30 -437 4 -209 7 -504 8 -656 l1 -275 -26 -52 c-28 -56 -67 -86 -126 -97 -28 -5 -38 -12 -38 -26 0 -19 10 -19 278 -17 221 2 277 6 277 16 0 7 -24 21 -53 31 -29 10 -66 31 -82 46 -60 57 -60 62 -60 694 -1 633 -4 679 -58 792 -56 117 -145 196 -254 225 -49 13 -222 17 -275 7z"/>
 <path d="M270 1936 c0 -8 5 -18 10 -21 19 -12 10 -23 -25 -29 -33 -7 -95 -49 -95 -66 0 -4 17 -18 38 -30 36 -22 36 -23 15 -33 -31 -14 -29 -27 5 -27 40 0 97 -43 119 -89 25 -55 37 -51 30 10 -8 67 -33 107 -90 146 -51 34 -47 51 7 33 37 -12 76 -50 100 -97 26 -51 21 -144 -14 -243 -16 -47 -30 -86 -30 -87 0 -2 9 -3 19 -3 11 0 38 16 61 35 69 58 165 70 210 25 10 -10 21 -36 25 -59 9 -52 22 -60 37 -24 18 41 18 41 45 8 l25 -30 -6 55 c-3 30 -8 65 -12 77 l-6 21 49 -24 c58 -28 111 -40 124 -27 7 7 1 16 -15 27 -15 9 -26 21 -26 27 0 11 22 9 78 -7 56 -16 -6 64 -85 108 -54 31 -61 48 -17 48 13 0 24 4 24 10 0 13 -64 23 -119 18 l-49 -5 -11 39 c-11 36 -31 44 -31 13 0 -7 -26 -33 -57 -57 -31 -24 -58 -47 -60 -53 -2 -6 36 -10 100 -10 77 -1 110 -5 135 -18 33 -18 46 -45 15 -32 -66 26 -245 20 -304 -10 -40 -21 -42 -19 -22 18 13 23 18 55 18 117 0 74 -4 92 -29 140 -41 80 -92 131 -79 79 5 -18 1 -17 -43 10 -54 35 -64 37 -64 17z"/>
 <path d="M1725 1925 c4 -16 7 -48 7 -70 -1 -54 15 -102 41 -120 48 -33 117 -7 117 45 0 38 -18 48 -30 16 -6 -18 -17 -26 -33 -26 -55 0 -65 63 -16 104 41 35 83 34 119 -3 75 -74 40 -160 -90 -226 -61 -31 -67 -36 -62 -60 5 -31 45 -60 68 -51 15 6 15 8 -1 26 -21 23 -21 23 27 43 94 39 155 122 145 196 -7 52 -32 102 -65 126 -32 24 -110 26 -159 5 -29 -13 -34 -12 -54 5 l-22 20 8 -30z"/>
 <path d="M1419 1520 c-80 -14 -129 -85 -129 -186 0 -33 -5 -65 -12 -72 -17 -17 -3 -25 22 -12 18 10 26 8 43 -8 52 -47 108 -55 151 -21 39 31 33 41 -19 33 -83 -12 -135 31 -135 112 0 74 98 132 155 90 17 -12 15 -17 -33 -75 -61 -73 -64 -86 -20 -77 21 4 59 32 109 79 63 59 77 78 78 105 1 38 -4 39 -44 7 -29 -24 -29 -24 -51 -4 -27 26 -71 37 -115 29z"/>
 <path d="M361 1357 c-55 -21 -112 -76 -140 -136 -37 -80 -36 -195 3 -305 16 -44 26 -91 24 -107 -7 -49 24 -29 37 24 4 15 8 27 10 27 1 0 17 -8 36 -17 19 -9 60 -19 91 -21 73 -5 134 22 186 84 20 24 42 44 50 44 7 0 39 -14 71 -32 53 -29 60 -31 89 -19 33 14 47 49 16 37 -22 -9 -60 17 -79 54 -22 43 -49 54 -84 37 -29 -14 -29 -14 -36 19 -11 64 -82 124 -145 124 -37 0 -101 -31 -116 -57 -18 -29 -26 -80 -15 -87 6 -4 17 7 26 23 21 41 53 61 98 61 62 0 96 -46 88 -120 -10 -94 -120 -140 -212 -88 -60 33 -90 85 -96 163 -7 83 14 141 67 189 47 42 75 51 137 42 64 -8 115 -41 223 -141 97 -89 208 -155 261 -155 25 0 29 4 29 28 0 25 -6 31 -37 40 -21 7 -53 21 -70 32 -39 24 -44 63 -13 103 26 32 25 37 -5 37 -13 0 -40 -14 -60 -31 l-35 -31 -72 67 c-40 36 -96 77 -125 91 -61 30 -152 40 -202 21z"/>
 <path d="M372 1234 c-16 -11 -22 -25 -22 -50 l0 -36 29 24 c20 15 30 32 30 51 1 31 -6 33 -37 11z"/>
 <path d="M1930 1201 c0 -5 11 -16 25 -25 27 -18 36 -59 10 -50 -12 5 -15 -4 -15 -44 0 -60 -7 -82 -26 -82 -9 0 -14 12 -14 33 0 30 -24 67 -43 67 -4 0 -7 -27 -7 -59 0 -45 -7 -74 -30 -123 -34 -71 -36 -86 -15 -114 24 -32 17 -40 -50 -51 -117 -20 -175 -91 -175 -212 0 -56 -3 -66 -30 -93 -16 -16 -30 -32 -30 -35 0 -3 19 -3 42 -1 32 3 51 -1 75 -18 76 -51 161 -34 197 40 17 36 18 43 5 80 -16 45 -59 70 -81 48 -10 -10 -7 -16 10 -28 36 -25 27 -89 -15 -105 -30 -11 -87 11 -102 39 -18 35 -13 123 9 160 38 61 125 79 195 39 153 -87 130 -342 -37 -411 -21 -9 -64 -16 -97 -16 -132 0 -250 80 -310 210 -18 39 -32 72 -30 74 2 1 21 9 43 17 21 8 45 24 54 36 14 23 14 23 -39 24 -30 0 -63 4 -74 8 -13 6 -30 3 -48 -8 -24 -13 -27 -20 -21 -46 31 -143 128 -281 237 -336 98 -51 185 -59 325 -33 83 15 128 15 165 -1 25 -11 12 22 -26 63 l-31 32 24 48 c16 33 24 70 28 127 5 105 -18 170 -88 243 -41 43 -50 59 -50 88 0 52 41 89 115 104 l59 12 -26 23 c-15 13 -32 25 -39 27 -9 3 -5 14 12 37 19 27 24 45 24 97 0 55 -3 67 -25 88 -26 24 -80 43 -80 27z"/>
 <path d="M422 1025 c-25 -32 -27 -44 -10 -80 7 -16 19 -25 35 -25 33 0 36 17 15 79 l-18 54 -22 -28z"/>
 <path d="M1302 914 c-7 -32 -12 -82 -12 -113 l0 -55 28 27 c22 21 30 41 40 103 6 43 11 79 9 80 -1 1 -14 5 -28 9 -25 6 -26 4 -37 -51z"/>
 <path d="M856 839 c-19 -22 -26 -42 -26 -71 0 -38 -2 -40 -24 -34 -23 6 -24 4 -16 -25 5 -17 21 -47 36 -67 l27 -35 -29 7 c-68 16 -172 76 -222 130 -47 50 -55 54 -78 46 l-25 -10 22 -32 23 -31 -33 6 c-38 8 -123 -9 -171 -33 -156 -80 -195 -332 -72 -464 88 -94 243 -101 362 -16 15 11 39 20 52 20 26 0 58 -27 58 -49 0 -7 6 -11 13 -8 19 7 12 72 -12 106 -12 17 -33 34 -47 37 -20 5 -24 12 -24 45 0 79 -44 138 -116 158 -95 26 -179 -63 -145 -152 14 -36 31 -26 31 19 0 45 29 74 74 74 108 0 130 -165 29 -223 -88 -51 -193 -22 -248 67 -26 44 -30 59 -30 125 0 65 4 83 28 124 53 90 136 121 245 93 50 -13 268 -92 281 -102 2 -2 -6 -18 -17 -36 -24 -38 -39 -108 -24 -108 5 0 12 7 16 15 9 24 22 18 36 -16 16 -37 74 -83 95 -75 12 4 11 11 -10 42 -53 78 -39 146 36 170 48 16 50 46 5 72 -55 33 -71 72 -70 175 0 48 -1 87 -2 87 -1 0 -14 -14 -28 -31z"/>
 <path d="M1365 759 c-22 -22 -52 -47 -67 -55 -21 -11 -28 -22 -28 -44 0 -19 5 -30 13 -30 17 0 95 54 120 82 17 20 24 88 9 88 -4 0 -26 -18 -47 -41z"/>
 </g>

</svg>