<?xml version="1.0" encoding="UTF-8"?>
<!DOCTYPE svg PUBLIC "-//W3C//DTD SVG 1.1//EN" "http://www.w3.org/Graphics/SVG/1.1/DTD/svg11.dtd">
<svg version="1.1" xmlns="http://www.w3.org/2000/svg" xmlns:xlink="http://www.w3.org/1999/xlink" x="0" y="0" width="212" height="211" viewBox="0, 0, 212, 211">
  <g id="Layer_1" transform="translate(0, 0)">
    <path d="M0,105.5 L0,0 L106,0 L212,0 L212,105.5 L212,211 L106,211 L0,211 L0,105.5 z" fill="#000000"/>
    <path d="M128,198.3 C128,197.9 129.2,196.4 130.7,194.8 C132.1,193.3 133.1,191.8 132.9,191.6 C132.7,191.3 130.5,191.5 128.1,192.1 C123,193.2 118.4,192.5 114.1,189.9 C109.2,187 110,185.2 116,185.8 C119.2,186.1 121.5,185.8 122.5,185 C123.8,183.9 123.7,183.5 121.5,181.8 C117.5,178.7 118.4,177.8 124.9,178.6 C131.4,179.3 133.1,178.3 130,175.5 C127.2,172.9 127.5,172 131,172.7 C134.4,173.3 134.5,173.2 132.6,169.4 C130.5,165.5 131.5,164.8 135.6,167.2 C139.5,169.5 144.8,169.2 150.1,166.4 C151.7,165.6 153,165.4 153,165.9 C153,167.1 141.8,177.2 135.8,181.3 C127.2,187.2 130.7,188 139.6,182.2 C147.1,177.3 156.9,166.8 160,160.4 C167.4,144.8 160.9,124.2 146.5,117.4 C140.6,114.6 137.8,114.4 131.9,116.5 C125.3,118.9 124.7,116.9 130.4,111.4 C135.7,106.3 135.4,104.5 129.3,105.5 C121.7,106.8 129.6,100.9 137.6,99.2 L141.3,98.5 L141.6,89.2 C142,76.8 144.3,68.8 146.9,70.4 C147.5,70.8 148,73.3 148,75.9 C148,78.5 148.6,81.4 149.3,82.4 C150.5,84 150.7,83.8 151.8,80.3 C152.5,78.1 153.9,75.5 154.9,74.6 C156.9,72.8 156.9,72.9 156.7,82.2 C156.5,89.8 156.8,92.1 158.3,94.4 L160.2,97.2 L165.5,91.3 C168.4,88.1 171,85.7 171.3,86 C171.6,86.3 170.7,89.9 169.3,94 C167.2,99.9 166.7,103.6 166.6,111.2 C166.5,116.6 166.2,121 165.9,121 C165.6,121 164.8,120 164.3,118.8 C163.7,117.5 160.7,113.4 157.7,109.7 C154.3,105.5 151.5,100.6 150.4,97.2 L148.5,91.5 L148.2,96.2 C147.9,101.6 149.2,104.8 155.3,113 C159,117.8 165.9,130.1 167.1,133.8 C167.4,134.8 168.8,134.1 171.5,131.6 C180.5,123.4 191.5,124.5 196.6,134.2 C199.9,140.5 196.7,151 190.7,153.5 C187,155 183.5,154.3 186.5,152.6 C191.3,149.8 193.7,145.7 190,146.7 C187.6,147.3 187.5,146.3 189.5,143.6 C191.9,140.4 191.4,135.5 188.4,133.1 C185.2,130.6 183.8,130.5 179.3,132.7 C174.4,135 171.2,140.4 169.4,149.6 C167.7,158 162.7,168.6 156.5,176.7 C152.5,181.9 152,186.1 155,188.7 C157.4,190.8 157.6,192.5 155.4,191.6 C152.6,190.5 154.5,193.4 157.6,195 L160.5,196.5 L157.1,196.8 C152.9,197.2 148.9,194.5 147.5,190.4 C147,188.8 146.5,187.3 146.3,187.1 C146.2,186.9 143.7,188.8 140.8,191.2 C132.8,197.8 128,200.5 128,198.3 z" fill="#FDFBFB"/>
    <path d="M57.3,196.3 C55.4,195.9 54.5,194 51.5,184.5 C49.6,178.3 48,172.7 48,172.1 C48,171.4 51.1,173.6 55,176.9 C65.7,186.1 70.6,187.9 79.8,185.9 C86.4,184.5 92,179.1 95.1,171.2 C97.3,165.8 97.4,163.5 98.1,127.5 C98.5,106.6 98.8,77.1 98.9,61.9 L99,34.4 L96.4,29.2 C93.6,23.6 89.7,20.6 83.8,19.5 C81,19 80,18.3 80,16.9 C80,15 81,15 107.8,15.2 C129.9,15.4 135.5,15.8 135.5,16.8 C135.5,17.5 133.1,18.9 130.2,19.9 C127.3,20.9 123.6,23 122,24.5 C116,30.2 116,30.7 116,93.9 C115.9,157.2 115.6,161.8 110.2,173.1 C104.6,184.8 95.7,192.7 84.8,195.6 C79.9,196.9 62.6,197.3 57.3,196.3 z" fill="#FDFBFB"/>
    <path d="M22,193.6 C22,192.8 22.5,191.8 23,191.5 C24.9,190.3 24,189.2 20.5,188.6 C17.2,187.9 11,183.7 11,182 C11,181.6 12.7,180.2 14.8,179 C18.4,176.8 18.4,176.7 16.3,175.7 C13.2,174.3 13.4,173 16.8,173 C20.8,173 26.5,168.7 28.7,164.1 C31.2,158.6 32.4,159 31.7,165.1 C30.9,171.8 28.4,175.8 22.7,179.7 C17.6,183.1 18,184.8 23.4,183 C27.1,181.8 31,178 33.4,173.3 C36,168.2 35.5,158.9 32,149 C30.4,144.3 29,140.4 29,140.3 C29,140.1 29.9,140 30.9,140 C32,140 34.7,141.6 37,143.5 C43.9,149.3 53.5,150.5 58,146 C59,145 60.1,142.4 60.5,140.1 C61.4,134.9 62.7,134.1 64.2,137.7 C66,141.8 66,141.8 68.7,138.5 L71.2,135.5 L70.6,141 C70.3,144 69.8,147.5 69.4,148.7 L68.8,150.8 L73.7,148.4 C79.5,145.6 84.8,144.4 86.1,145.7 C86.8,146.4 86.2,147.3 84.6,148.4 C83.1,149.3 82,150.5 82,151.1 C82,152.2 84.2,152 89.8,150.4 C95.4,148.8 89.2,156.8 81.3,161.2 C75.9,164.3 75.2,166 79.6,166 C80.9,166 82,166.4 82,167 C82,168.3 75.6,169.3 70.1,168.8 L65.2,168.3 L64.1,172.2 C63,175.8 61,176.6 61,173.5 C61,172.8 58.4,170.2 55.3,167.8 C52.2,165.4 49.5,163.1 49.3,162.5 C49.1,161.9 52.9,161.5 59.3,161.5 C67,161.4 70.3,161 72.8,159.7 C76.1,157.9 77.4,155.2 74.3,156.5 C67.7,159.1 49.8,158.5 43.9,155.5 C39.9,153.4 39.7,153.6 41.7,157.3 C43,159.6 43.5,162.8 43.5,169 C43.5,176.4 43.1,178.2 40.6,183 C36.5,191 31.4,196.1 32.7,190.9 C33.2,189.1 32.8,189.2 28.4,191.9 C23,195.4 22,195.6 22,193.6 z" fill="#FDFBFB"/>
    <path d="M167.5,192.5 C167.9,190.9 168.2,187.7 168.2,185.5 C168.1,180.1 169.7,175.3 172.3,173.5 C177.1,170.2 184,172.8 184,178 C184,181.8 182.2,182.8 181,179.6 C180.4,177.8 179.3,177 177.7,177 C172.2,177 171.2,183.3 176.1,187.4 C180.2,190.9 184.4,190.8 188,187.1 C195.5,179.7 192,171.1 179,164.5 C172.9,161.4 172.3,160.9 172.8,158.5 C173.3,155.4 177.3,152.5 179.6,153.4 C181.1,154 181.1,154.2 179.5,156 C177.4,158.3 177.4,158.3 182.2,160.3 C191.6,164.2 197.7,172.5 196.7,179.9 C196,185.1 193.5,190.1 190.2,192.5 C187,194.9 179.2,195.1 174.3,193 C171.4,191.7 170.9,191.8 168.9,193.5 L166.7,195.5 L167.5,192.5 z" fill="#FDFBFB"/>
    <path d="M136.9,152 C128.9,150.6 124,143.5 124,133.4 C124,130.1 123.5,126.9 122.8,126.2 C121.1,124.5 122.5,123.7 125,125 C126.8,126 127.6,125.8 129.3,124.2 C134.5,119.5 140.1,118.7 144.4,122.1 C148.3,125.2 147.7,126.2 142.5,125.4 C134.2,124.2 129,128.5 129,136.6 C129,144 138.8,149.8 144.5,145.6 C146.2,144.4 146,143.9 141.2,138.1 C135.1,130.8 134.8,129.5 139.2,130.4 C141.3,130.8 145.1,133.6 150.1,138.3 C156.4,144.2 157.8,146.1 157.9,148.8 C158,152.6 157.5,152.7 153.5,149.5 C150.6,147.1 150.6,147.1 148.4,149.1 C145.7,151.7 141.3,152.8 136.9,152 z" fill="#FDFBFB"/>
    <path d="M31.1,135.7 C25.6,133.6 19.9,128.1 17.1,122.1 C13.4,114.1 13.5,102.6 17.4,91.6 C19,87.2 20,82.5 19.8,80.9 C19.1,76 22.2,78 23.5,83.3 C23.9,84.8 24.3,86 24.5,86 C24.6,86 26.2,85.2 28.1,84.3 C30,83.4 34.1,82.4 37.2,82.2 C44.5,81.7 50.6,84.4 55.8,90.6 C57.8,93 60,95 60.8,95 C61.5,95 64.7,93.6 67.9,91.8 C73.2,88.9 73.9,88.7 76.8,89.9 C80.1,91.3 81.5,94.8 78.4,93.6 C76.2,92.7 72.4,95.3 70.5,99 C68.3,103.3 65.6,104.4 62.1,102.7 C59.2,101.3 59.2,101.3 58.5,104.6 C57.4,111 50.3,117 44,117 C40.3,117 33.9,113.9 32.4,111.3 C30.6,108.4 29.8,103.3 30.9,102.6 C31.5,102.2 32.6,103.3 33.5,104.9 C35.6,109 38.8,111 43.3,111 C49.5,111 52.9,106.4 52.1,99 C51.1,89.6 40.1,85 30.9,90.2 C24.9,93.5 21.9,98.7 21.3,106.5 C20.6,114.8 22.7,120.6 28,125.4 C32.7,129.6 35.5,130.5 41.7,129.6 C48.1,128.8 53.2,125.5 64,115.5 C73.7,106.6 84.8,100 90.1,100 C92.6,100 93,100.4 93,102.8 C93,105.3 92.4,105.9 89.3,106.8 C87.2,107.5 84,108.9 82.3,110 C78.4,112.4 77.9,116.3 81,120.3 C83.6,123.5 83.5,124 80.5,124 C79.2,124 76.5,122.6 74.5,120.9 L71,117.8 L63.8,124.5 C59.8,128.1 54.2,132.2 51.3,133.6 C45.2,136.6 36.1,137.6 31.1,135.7 z" fill="#FDFBFB"/>
    <path d="M32.2,123.4 C30.6,122.3 30,120.9 30,118.4 L30,114.8 L32.9,117.2 C34.9,118.7 35.9,120.4 35.9,122.3 C36,125.4 35.3,125.6 32.2,123.4 z" fill="#FDFBFB"/>
    <path d="M188,120.1 C188,119.6 189.1,118.5 190.5,117.6 C193.2,115.8 194.1,111.7 191.5,112.6 C190.3,113.1 190,112.2 190,108.2 C190,102.2 189.3,100 187.4,100 C186.5,100 186,101.2 186,103.3 C186,106.3 183.6,110 181.7,110 C181.3,110 181,107.3 181,104.1 C181,99.6 180.3,96.7 178,91.8 C174.6,84.7 174.4,83.2 176.5,80.4 C178.9,77.2 178.2,76.4 171.5,75.3 C159.8,73.3 154,66.2 154,54.1 C154,48.5 153.7,47.5 151,44.8 C149.4,43.2 148,41.6 148,41.3 C148,41 149.9,41 152.2,41.2 C155.4,41.5 157.3,41.1 159.7,39.4 C167.3,34.3 175.8,36 179.4,43.4 C181.1,47 181.2,47.7 179.9,51.4 C178.3,55.9 174,58.4 171.8,56.2 C170.8,55.2 171.1,54.6 172.8,53.4 C176.4,50.9 175.5,44.5 171.3,42.9 C168.3,41.8 162.6,44 161.1,46.8 C159.3,50.3 159.8,59.1 162,62.8 C165.8,68.9 174.5,70.7 181.5,66.7 C196.8,58 194.5,32.5 177.8,25.6 C175.7,24.7 171.4,24 168.1,24 C154.9,24 143.1,32 137.1,45 C135.3,48.9 133.9,52.2 134.1,52.4 C134.3,52.5 136.2,53.3 138.4,54.1 C140.5,54.9 142.9,56.5 143.8,57.7 C145.2,60 145.2,60 139.9,60.1 C136.9,60.1 133.6,60.5 132.5,60.9 C131.2,61.5 129.5,61.2 127.7,60.1 C125.3,58.8 125,58.1 125.6,55.5 C128.7,41.2 138.4,27.4 149.3,21.9 C159.1,16.8 167.8,16 181.8,18.6 C190.1,20.1 194.6,20.1 198.3,18.5 C200.8,17.4 199.5,20.7 195.7,24.8 L192.6,28 L195,32.8 C196.6,36.1 197.4,39.8 197.8,45.5 C198.3,56 196,62.5 189,69.8 C184.9,74.1 184,75.7 184,78.6 C184,83.8 188.1,87.5 195.5,89 L201.4,90.2 L198.8,92.5 C197.3,93.8 195.6,95 194.9,95.2 C194,95.5 194.4,96.6 196.1,98.9 C198,101.6 198.5,103.4 198.5,108.6 C198.5,114.1 198.2,115.3 196,117.4 C193.4,119.8 188,121.7 188,120.1 z" fill="#FDFBFB"/>
    <path d="M37.2,102.5 C34.7,99.3 34.5,98.1 36.2,94.5 C36.9,92.9 38.1,92 39.7,92 C43,92 43.3,93.7 41.2,99.9 L39.4,105.3 L37.2,102.5 z" fill="#FDFBFB"/>
    <path d="M125.2,91.4 C124.5,88.2 124,83.2 124,80.1 L124,74.6 L126.8,77.3 C129,79.4 129.8,81.4 130.8,87.6 C131.4,91.9 131.9,95.5 131.7,95.6 C131.6,95.7 130.3,96.1 128.9,96.5 C126.4,97.1 126.3,96.9 125.2,91.4 z" fill="#FDFBFB"/>
    <path d="M80.6,83.9 C78.7,81.7 78,79.7 78,76.8 C78,73 77.8,72.8 75.6,73.4 C73.3,74 73.2,73.8 74,70.9 C74.5,69.2 76.1,66.2 77.6,64.2 L80.3,60.7 L77.4,61.4 C70.6,63 60.2,69 55.2,74.4 C50.5,79.4 49.7,79.8 47.4,79 L44.9,78 L47.1,74.8 L49.4,71.7 L46.1,72.3 C42.3,73.1 33.8,71.4 29,69 C13.4,61 9.5,35.8 21.8,22.6 C30.6,13.2 46.1,12.5 58,21 C59.5,22.1 61.9,23 63.2,23 C65.8,23 69,20.3 69,18.1 C69,17.4 69.6,17 70.3,17.3 C72.2,18 71.5,24.5 69.1,27.9 C67.9,29.6 65.8,31.3 64.4,31.6 C62.4,32.1 62,32.8 62,36.1 C62,44 57.6,49.9 50.4,51.9 C40.9,54.5 32.5,45.6 35.9,36.7 C37.3,33.1 39,34.1 39,38.6 C39,43.1 41.9,46 46.4,46 C57.2,46 59.4,29.5 49.3,23.7 C40.5,18.6 30,21.5 24.5,30.4 C21.9,34.8 21.5,36.3 21.5,42.9 C21.5,49.4 21.9,51.2 24.3,55.3 C29.6,64.3 37.9,67.4 48.8,64.6 C53.8,63.3 75.6,55.4 76.9,54.4 C77.1,54.2 76.3,52.6 75.2,50.8 C72.8,47 71.3,40 72.8,40 C73.3,40 74,40.7 74.4,41.5 C75.3,43.9 76.6,43.3 78,39.9 C79.6,36.2 85.4,31.6 87.5,32.4 C88.7,32.8 88.6,33.5 86.5,36.6 C81.2,44.4 82.6,51.2 90.1,53.6 C94.9,55.2 95.1,58.2 90.6,60.8 C85.1,64.1 83.5,68 83.6,78.3 C83.6,83.1 83.5,87 83.4,87 C83.3,87 82,85.6 80.6,83.9 z" fill="#FDFBFB"/>
    <path d="M131.5,75.9 C129.3,73.7 126.3,71.2 124.8,70.4 C122.7,69.3 122,68.2 122,66 C122,64.1 122.5,63 123.3,63 C125,63 132.8,68.4 135.3,71.2 C137,73.2 137.7,80 136.2,80 C135.8,80 133.6,78.2 131.5,75.9 z" fill="#FDFBFB"/>
  </g>
</svg>
